<svg width="1600" height="665" viewBox="0 0 1600 665" fill="none" xmlns="http://www.w3.org/2000/svg">
<rect x="-1" width="1601" height="665" fill="#2437E6"/>
<circle cx="26.5" cy="37.5" r="2.5" fill="#373737" fill-opacity="0.5"/>
<circle cx="26.5" cy="92.5" r="2.5" fill="#373737" fill-opacity="0.5"/>
<circle cx="26.5" cy="147.5" r="2.5" fill="#373737" fill-opacity="0.5"/>
<circle cx="26.5" cy="202.5" r="2.5" fill="#373737" fill-opacity="0.5"/>
<circle cx="26.5" cy="257.5" r="2.5" fill="#373737" fill-opacity="0.5"/>
<circle cx="26.5" cy="312.5" r="2.5" fill="#373737" fill-opacity="0.5"/>
<circle cx="26.5" cy="367.5" r="2.5" fill="#373737" fill-opacity="0.5"/>
<circle cx="26.5" cy="422.5" r="2.5" fill="#373737" fill-opacity="0.5"/>
<circle cx="26.5" cy="477.5" r="2.5" fill="#373737" fill-opacity="0.5"/>
<circle cx="26.5" cy="532.5" r="2.5" fill="#373737" fill-opacity="0.5"/>
<circle cx="26.5" cy="587.5" r="2.5" fill="#373737" fill-opacity="0.5"/>
<circle cx="26.5" cy="642.5" r="2.5" fill="#373737" fill-opacity="0.5"/>
<circle cx="81.5" cy="37.5" r="2.5" fill="#373737" fill-opacity="0.5"/>
<circle cx="81.5" cy="92.5" r="2.5" fill="#373737" fill-opacity="0.5"/>
<circle cx="81.5" cy="147.5" r="2.5" fill="#373737" fill-opacity="0.5"/>
<circle cx="81.5" cy="202.5" r="2.5" fill="#373737" fill-opacity="0.5"/>
<circle cx="81.5" cy="257.5" r="2.5" fill="#373737" fill-opacity="0.5"/>
<circle cx="81.5" cy="312.5" r="2.5" fill="#373737" fill-opacity="0.5"/>
<circle cx="81.5" cy="367.5" r="2.5" fill="#373737" fill-opacity="0.5"/>
<circle cx="81.5" cy="422.5" r="2.5" fill="#373737" fill-opacity="0.5"/>
<circle cx="81.5" cy="477.5" r="2.5" fill="#373737" fill-opacity="0.5"/>
<circle cx="81.5" cy="532.5" r="2.5" fill="#373737" fill-opacity="0.5"/>
<circle cx="81.5" cy="587.5" r="2.5" fill="#373737" fill-opacity="0.5"/>
<circle cx="81.5" cy="642.5" r="2.5" fill="#373737" fill-opacity="0.5"/>
<circle cx="136.5" cy="37.5" r="2.5" fill="#373737" fill-opacity="0.5"/>
<circle cx="136.5" cy="92.5" r="2.5" fill="#373737" fill-opacity="0.5"/>
<circle cx="136.5" cy="147.5" r="2.5" fill="#373737" fill-opacity="0.5"/>
<circle cx="136.5" cy="202.5" r="2.5" fill="#373737" fill-opacity="0.5"/>
<circle cx="136.5" cy="257.5" r="2.5" fill="#373737" fill-opacity="0.5"/>
<circle cx="136.5" cy="312.5" r="2.5" fill="#373737" fill-opacity="0.5"/>
<circle cx="136.5" cy="367.5" r="2.5" fill="#373737" fill-opacity="0.5"/>
<circle cx="136.5" cy="422.5" r="2.5" fill="#373737" fill-opacity="0.5"/>
<circle cx="136.5" cy="477.5" r="2.5" fill="#373737" fill-opacity="0.5"/>
<circle cx="136.5" cy="532.5" r="2.5" fill="#373737" fill-opacity="0.5"/>
<circle cx="136.5" cy="587.5" r="2.5" fill="#373737" fill-opacity="0.5"/>
<circle cx="136.5" cy="642.5" r="2.5" fill="#373737" fill-opacity="0.5"/>
<circle cx="191.5" cy="37.5" r="2.5" fill="#373737" fill-opacity="0.5"/>
<circle cx="191.5" cy="92.5" r="2.5" fill="#373737" fill-opacity="0.5"/>
<circle cx="191.5" cy="147.5" r="2.5" fill="#373737" fill-opacity="0.5"/>
<circle cx="191.5" cy="202.5" r="2.5" fill="#373737" fill-opacity="0.5"/>
<circle cx="191.5" cy="257.5" r="2.5" fill="#373737" fill-opacity="0.5"/>
<circle cx="191.5" cy="312.5" r="2.5" fill="#373737" fill-opacity="0.5"/>
<circle cx="191.5" cy="367.5" r="2.5" fill="#373737" fill-opacity="0.5"/>
<circle cx="191.5" cy="422.5" r="2.5" fill="#373737" fill-opacity="0.5"/>
<circle cx="191.5" cy="477.5" r="2.5" fill="#373737" fill-opacity="0.5"/>
<circle cx="191.5" cy="532.5" r="2.5" fill="#373737" fill-opacity="0.5"/>
<circle cx="191.5" cy="587.5" r="2.5" fill="#373737" fill-opacity="0.5"/>
<circle cx="191.5" cy="642.5" r="2.5" fill="#373737" fill-opacity="0.5"/>
<circle cx="246.5" cy="37.5" r="2.5" fill="#373737" fill-opacity="0.5"/>
<circle cx="246.5" cy="92.5" r="2.5" fill="#373737" fill-opacity="0.5"/>
<circle cx="246.5" cy="147.5" r="2.5" fill="#373737" fill-opacity="0.5"/>
<circle cx="246.5" cy="202.5" r="2.5" fill="#373737" fill-opacity="0.5"/>
<circle cx="246.5" cy="257.5" r="2.5" fill="#373737" fill-opacity="0.5"/>
<circle cx="246.5" cy="312.5" r="2.5" fill="#373737" fill-opacity="0.5"/>
<circle cx="246.5" cy="367.5" r="2.5" fill="#373737" fill-opacity="0.5"/>
<circle cx="246.5" cy="422.5" r="2.5" fill="#373737" fill-opacity="0.5"/>
<circle cx="246.5" cy="477.5" r="2.5" fill="#373737" fill-opacity="0.5"/>
<circle cx="246.5" cy="532.5" r="2.5" fill="#373737" fill-opacity="0.5"/>
<circle cx="246.5" cy="587.5" r="2.5" fill="#373737" fill-opacity="0.5"/>
<circle cx="246.5" cy="642.5" r="2.5" fill="#373737" fill-opacity="0.5"/>
<circle cx="301.5" cy="37.5" r="2.5" fill="#373737" fill-opacity="0.5"/>
<circle cx="301.5" cy="92.5" r="2.5" fill="#373737" fill-opacity="0.5"/>
<circle cx="301.5" cy="147.5" r="2.5" fill="#373737" fill-opacity="0.5"/>
<circle cx="301.5" cy="202.5" r="2.5" fill="#373737" fill-opacity="0.5"/>
<circle cx="301.5" cy="257.5" r="2.5" fill="#373737" fill-opacity="0.5"/>
<circle cx="301.5" cy="312.5" r="2.5" fill="#373737" fill-opacity="0.5"/>
<circle cx="301.5" cy="367.5" r="2.5" fill="#373737" fill-opacity="0.5"/>
<circle cx="301.5" cy="422.5" r="2.5" fill="#373737" fill-opacity="0.5"/>
<circle cx="301.5" cy="477.5" r="2.5" fill="#373737" fill-opacity="0.5"/>
<circle cx="301.5" cy="532.5" r="2.5" fill="#373737" fill-opacity="0.5"/>
<circle cx="301.5" cy="587.5" r="2.5" fill="#373737" fill-opacity="0.5"/>
<circle cx="301.5" cy="642.5" r="2.5" fill="#373737" fill-opacity="0.5"/>
<circle cx="356.5" cy="37.5" r="2.5" fill="#373737" fill-opacity="0.5"/>
<circle cx="356.5" cy="92.5" r="2.5" fill="#373737" fill-opacity="0.5"/>
<circle cx="356.5" cy="147.5" r="2.5" fill="#373737" fill-opacity="0.5"/>
<circle cx="356.5" cy="202.5" r="2.5" fill="#373737" fill-opacity="0.5"/>
<circle cx="356.5" cy="257.5" r="2.5" fill="#373737" fill-opacity="0.5"/>
<circle cx="356.5" cy="312.5" r="2.5" fill="#373737" fill-opacity="0.5"/>
<circle cx="356.5" cy="367.5" r="2.5" fill="#373737" fill-opacity="0.5"/>
<circle cx="356.5" cy="422.5" r="2.5" fill="#373737" fill-opacity="0.5"/>
<circle cx="356.5" cy="477.5" r="2.5" fill="#373737" fill-opacity="0.5"/>
<circle cx="356.5" cy="532.5" r="2.5" fill="#373737" fill-opacity="0.5"/>
<circle cx="356.5" cy="587.5" r="2.5" fill="#373737" fill-opacity="0.5"/>
<circle cx="356.5" cy="642.5" r="2.5" fill="#373737" fill-opacity="0.5"/>
<circle cx="411.5" cy="37.5" r="2.5" fill="#373737" fill-opacity="0.5"/>
<circle cx="411.5" cy="92.5" r="2.5" fill="#373737" fill-opacity="0.5"/>
<circle cx="411.5" cy="147.5" r="2.5" fill="#373737" fill-opacity="0.5"/>
<circle cx="411.5" cy="202.5" r="2.5" fill="#373737" fill-opacity="0.5"/>
<circle cx="411.5" cy="257.5" r="2.5" fill="#373737" fill-opacity="0.5"/>
<circle cx="411.5" cy="312.5" r="2.5" fill="#373737" fill-opacity="0.5"/>
<circle cx="411.5" cy="367.5" r="2.5" fill="#373737" fill-opacity="0.5"/>
<circle cx="411.5" cy="422.5" r="2.5" fill="#373737" fill-opacity="0.5"/>
<circle cx="411.5" cy="477.5" r="2.5" fill="#373737" fill-opacity="0.5"/>
<circle cx="411.5" cy="532.5" r="2.5" fill="#373737" fill-opacity="0.5"/>
<circle cx="411.5" cy="587.5" r="2.5" fill="#373737" fill-opacity="0.5"/>
<circle cx="411.5" cy="642.5" r="2.5" fill="#373737" fill-opacity="0.5"/>
<circle cx="466.5" cy="37.5" r="2.5" fill="#373737" fill-opacity="0.5"/>
<circle cx="466.5" cy="92.5" r="2.5" fill="#373737" fill-opacity="0.5"/>
<circle cx="466.5" cy="147.5" r="2.5" fill="#373737" fill-opacity="0.5"/>
<circle cx="466.5" cy="202.5" r="2.5" fill="#373737" fill-opacity="0.5"/>
<circle cx="466.5" cy="257.5" r="2.5" fill="#373737" fill-opacity="0.5"/>
<circle cx="466.5" cy="312.5" r="2.5" fill="#373737" fill-opacity="0.5"/>
<circle cx="466.5" cy="367.5" r="2.5" fill="#373737" fill-opacity="0.5"/>
<circle cx="466.5" cy="422.5" r="2.5" fill="#373737" fill-opacity="0.5"/>
<circle cx="466.5" cy="477.5" r="2.5" fill="#373737" fill-opacity="0.5"/>
<circle cx="466.5" cy="532.5" r="2.5" fill="#373737" fill-opacity="0.5"/>
<circle cx="466.5" cy="587.5" r="2.5" fill="#373737" fill-opacity="0.5"/>
<circle cx="466.5" cy="642.5" r="2.5" fill="#373737" fill-opacity="0.5"/>
<circle cx="521.5" cy="37.5" r="2.5" fill="#373737" fill-opacity="0.5"/>
<circle cx="521.5" cy="92.5" r="2.5" fill="#373737" fill-opacity="0.5"/>
<circle cx="521.5" cy="147.5" r="2.5" fill="#373737" fill-opacity="0.5"/>
<circle cx="521.5" cy="202.5" r="2.5" fill="#373737" fill-opacity="0.5"/>
<circle cx="521.5" cy="257.5" r="2.5" fill="#373737" fill-opacity="0.5"/>
<circle cx="521.5" cy="312.5" r="2.5" fill="#373737" fill-opacity="0.5"/>
<circle cx="521.5" cy="367.5" r="2.5" fill="#373737" fill-opacity="0.5"/>
<circle cx="521.5" cy="422.5" r="2.5" fill="#373737" fill-opacity="0.5"/>
<circle cx="521.5" cy="477.5" r="2.5" fill="#373737" fill-opacity="0.5"/>
<circle cx="521.5" cy="532.5" r="2.5" fill="#373737" fill-opacity="0.5"/>
<circle cx="521.5" cy="587.5" r="2.5" fill="#373737" fill-opacity="0.5"/>
<circle cx="521.5" cy="642.5" r="2.5" fill="#373737" fill-opacity="0.5"/>
<circle cx="576.5" cy="37.5" r="2.5" fill="#373737" fill-opacity="0.5"/>
<circle cx="576.5" cy="92.5" r="2.5" fill="#373737" fill-opacity="0.5"/>
<circle cx="576.5" cy="147.5" r="2.5" fill="#373737" fill-opacity="0.5"/>
<circle cx="576.5" cy="202.5" r="2.5" fill="#373737" fill-opacity="0.5"/>
<circle cx="576.5" cy="257.5" r="2.5" fill="#373737" fill-opacity="0.5"/>
<circle cx="576.5" cy="312.5" r="2.5" fill="#373737" fill-opacity="0.5"/>
<circle cx="576.5" cy="367.5" r="2.5" fill="#373737" fill-opacity="0.5"/>
<circle cx="576.5" cy="422.5" r="2.5" fill="#373737" fill-opacity="0.5"/>
<circle cx="576.5" cy="477.5" r="2.5" fill="#373737" fill-opacity="0.5"/>
<circle cx="576.5" cy="532.5" r="2.5" fill="#373737" fill-opacity="0.5"/>
<circle cx="576.5" cy="587.5" r="2.5" fill="#373737" fill-opacity="0.5"/>
<circle cx="576.5" cy="642.5" r="2.5" fill="#373737" fill-opacity="0.5"/>
<circle cx="631.5" cy="37.5" r="2.5" fill="#373737" fill-opacity="0.5"/>
<circle cx="631.5" cy="92.5" r="2.5" fill="#373737" fill-opacity="0.5"/>
<circle cx="631.5" cy="147.5" r="2.5" fill="#373737" fill-opacity="0.5"/>
<circle cx="631.5" cy="202.5" r="2.5" fill="#373737" fill-opacity="0.5"/>
<circle cx="631.5" cy="257.5" r="2.5" fill="#373737" fill-opacity="0.5"/>
<circle cx="631.5" cy="312.5" r="2.5" fill="#373737" fill-opacity="0.5"/>
<circle cx="631.5" cy="367.5" r="2.5" fill="#373737" fill-opacity="0.5"/>
<circle cx="631.5" cy="422.5" r="2.5" fill="#373737" fill-opacity="0.5"/>
<circle cx="631.5" cy="477.5" r="2.5" fill="#373737" fill-opacity="0.5"/>
<circle cx="631.5" cy="532.5" r="2.5" fill="#373737" fill-opacity="0.5"/>
<circle cx="631.5" cy="587.5" r="2.5" fill="#373737" fill-opacity="0.5"/>
<circle cx="631.5" cy="642.5" r="2.5" fill="#373737" fill-opacity="0.5"/>
<circle cx="686.5" cy="37.5" r="2.5" fill="#373737" fill-opacity="0.5"/>
<circle cx="686.5" cy="92.5" r="2.5" fill="#373737" fill-opacity="0.5"/>
<circle cx="686.5" cy="147.5" r="2.5" fill="#373737" fill-opacity="0.5"/>
<circle cx="686.5" cy="202.5" r="2.5" fill="#373737" fill-opacity="0.5"/>
<circle cx="686.5" cy="257.5" r="2.5" fill="#373737" fill-opacity="0.5"/>
<circle cx="686.5" cy="312.5" r="2.5" fill="#373737" fill-opacity="0.5"/>
<circle cx="686.5" cy="367.5" r="2.5" fill="#373737" fill-opacity="0.5"/>
<circle cx="686.5" cy="422.5" r="2.5" fill="#373737" fill-opacity="0.5"/>
<circle cx="686.5" cy="477.5" r="2.5" fill="#373737" fill-opacity="0.5"/>
<circle cx="686.5" cy="532.5" r="2.5" fill="#373737" fill-opacity="0.5"/>
<circle cx="686.5" cy="587.5" r="2.5" fill="#373737" fill-opacity="0.5"/>
<circle cx="686.5" cy="642.5" r="2.5" fill="#373737" fill-opacity="0.5"/>
<circle cx="741.5" cy="37.5" r="2.5" fill="#373737" fill-opacity="0.5"/>
<circle cx="741.5" cy="92.5" r="2.5" fill="#373737" fill-opacity="0.5"/>
<circle cx="741.5" cy="147.5" r="2.5" fill="#373737" fill-opacity="0.5"/>
<circle cx="741.5" cy="202.5" r="2.5" fill="#373737" fill-opacity="0.5"/>
<circle cx="741.5" cy="257.5" r="2.5" fill="#373737" fill-opacity="0.5"/>
<circle cx="741.5" cy="312.5" r="2.5" fill="#373737" fill-opacity="0.5"/>
<circle cx="741.5" cy="367.5" r="2.5" fill="#373737" fill-opacity="0.5"/>
<circle cx="741.5" cy="422.5" r="2.5" fill="#373737" fill-opacity="0.5"/>
<circle cx="741.5" cy="477.5" r="2.5" fill="#373737" fill-opacity="0.5"/>
<circle cx="741.5" cy="532.5" r="2.5" fill="#373737" fill-opacity="0.5"/>
<circle cx="741.5" cy="587.5" r="2.5" fill="#373737" fill-opacity="0.5"/>
<circle cx="741.5" cy="642.5" r="2.5" fill="#373737" fill-opacity="0.5"/>
<circle cx="796.5" cy="37.5" r="2.5" fill="#373737" fill-opacity="0.5"/>
<circle cx="796.5" cy="92.5" r="2.5" fill="#373737" fill-opacity="0.5"/>
<circle cx="796.5" cy="147.5" r="2.5" fill="#373737" fill-opacity="0.5"/>
<circle cx="796.5" cy="202.5" r="2.5" fill="#373737" fill-opacity="0.5"/>
<circle cx="796.5" cy="257.5" r="2.5" fill="#373737" fill-opacity="0.5"/>
<circle cx="796.5" cy="312.5" r="2.5" fill="#373737" fill-opacity="0.5"/>
<circle cx="796.5" cy="367.5" r="2.5" fill="#373737" fill-opacity="0.5"/>
<circle cx="796.5" cy="422.5" r="2.5" fill="#373737" fill-opacity="0.5"/>
<circle cx="796.5" cy="477.5" r="2.5" fill="#373737" fill-opacity="0.5"/>
<circle cx="796.5" cy="532.5" r="2.5" fill="#373737" fill-opacity="0.5"/>
<circle cx="796.5" cy="587.5" r="2.5" fill="#373737" fill-opacity="0.5"/>
<circle cx="796.5" cy="642.5" r="2.5" fill="#373737" fill-opacity="0.5"/>
<circle cx="851.5" cy="37.5" r="2.5" fill="#373737" fill-opacity="0.5"/>
<circle cx="851.5" cy="92.5" r="2.5" fill="#373737" fill-opacity="0.5"/>
<circle cx="851.5" cy="147.5" r="2.5" fill="#373737" fill-opacity="0.5"/>
<circle cx="851.5" cy="202.5" r="2.5" fill="#373737" fill-opacity="0.5"/>
<circle cx="851.5" cy="257.5" r="2.5" fill="#373737" fill-opacity="0.5"/>
<circle cx="851.5" cy="312.5" r="2.5" fill="#373737" fill-opacity="0.5"/>
<circle cx="851.5" cy="367.5" r="2.5" fill="#373737" fill-opacity="0.5"/>
<circle cx="851.5" cy="422.5" r="2.5" fill="#373737" fill-opacity="0.5"/>
<circle cx="851.5" cy="477.5" r="2.5" fill="#373737" fill-opacity="0.5"/>
<circle cx="851.5" cy="532.5" r="2.5" fill="#373737" fill-opacity="0.5"/>
<circle cx="851.5" cy="587.5" r="2.5" fill="#373737" fill-opacity="0.5"/>
<circle cx="851.5" cy="642.5" r="2.5" fill="#373737" fill-opacity="0.5"/>
<circle cx="906.5" cy="37.5" r="2.5" fill="#373737" fill-opacity="0.5"/>
<circle cx="906.5" cy="92.5" r="2.5" fill="#373737" fill-opacity="0.5"/>
<circle cx="906.5" cy="147.5" r="2.5" fill="#373737" fill-opacity="0.5"/>
<circle cx="906.5" cy="202.5" r="2.5" fill="#373737" fill-opacity="0.5"/>
<circle cx="906.5" cy="257.5" r="2.5" fill="#373737" fill-opacity="0.5"/>
<circle cx="906.5" cy="312.5" r="2.5" fill="#373737" fill-opacity="0.5"/>
<circle cx="906.5" cy="367.5" r="2.5" fill="#373737" fill-opacity="0.5"/>
<circle cx="906.5" cy="422.5" r="2.5" fill="#373737" fill-opacity="0.5"/>
<circle cx="906.5" cy="477.5" r="2.5" fill="#373737" fill-opacity="0.5"/>
<circle cx="906.5" cy="532.5" r="2.5" fill="#373737" fill-opacity="0.5"/>
<circle cx="906.5" cy="587.5" r="2.5" fill="#373737" fill-opacity="0.5"/>
<circle cx="906.5" cy="642.5" r="2.5" fill="#373737" fill-opacity="0.5"/>
<circle cx="961.5" cy="37.5" r="2.5" fill="#373737" fill-opacity="0.5"/>
<circle cx="961.5" cy="92.5" r="2.5" fill="#373737" fill-opacity="0.5"/>
<circle cx="961.5" cy="147.5" r="2.5" fill="#373737" fill-opacity="0.5"/>
<circle cx="961.5" cy="202.5" r="2.5" fill="#373737" fill-opacity="0.5"/>
<circle cx="961.5" cy="257.5" r="2.5" fill="#373737" fill-opacity="0.5"/>
<circle cx="961.5" cy="312.5" r="2.5" fill="#373737" fill-opacity="0.5"/>
<circle cx="961.5" cy="367.5" r="2.5" fill="#373737" fill-opacity="0.5"/>
<circle cx="961.5" cy="422.5" r="2.5" fill="#373737" fill-opacity="0.5"/>
<circle cx="961.5" cy="477.5" r="2.5" fill="#373737" fill-opacity="0.5"/>
<circle cx="961.5" cy="532.5" r="2.5" fill="#373737" fill-opacity="0.5"/>
<circle cx="961.5" cy="587.5" r="2.5" fill="#373737" fill-opacity="0.5"/>
<circle cx="961.5" cy="642.5" r="2.5" fill="#373737" fill-opacity="0.5"/>
<circle cx="1016.5" cy="37.5" r="2.5" fill="#373737" fill-opacity="0.5"/>
<circle cx="1016.5" cy="92.5" r="2.5" fill="#373737" fill-opacity="0.5"/>
<circle cx="1016.5" cy="147.5" r="2.5" fill="#373737" fill-opacity="0.5"/>
<circle cx="1016.5" cy="202.5" r="2.5" fill="#373737" fill-opacity="0.5"/>
<circle cx="1016.5" cy="257.5" r="2.5" fill="#373737" fill-opacity="0.5"/>
<circle cx="1016.5" cy="312.5" r="2.5" fill="#373737" fill-opacity="0.5"/>
<circle cx="1016.5" cy="367.5" r="2.5" fill="#373737" fill-opacity="0.5"/>
<circle cx="1016.5" cy="422.5" r="2.5" fill="#373737" fill-opacity="0.5"/>
<circle cx="1016.5" cy="477.5" r="2.5" fill="#373737" fill-opacity="0.5"/>
<circle cx="1016.5" cy="532.5" r="2.5" fill="#373737" fill-opacity="0.5"/>
<circle cx="1016.5" cy="587.5" r="2.5" fill="#373737" fill-opacity="0.5"/>
<circle cx="1016.5" cy="642.5" r="2.5" fill="#373737" fill-opacity="0.5"/>
<circle cx="1071.5" cy="37.5" r="2.5" fill="#373737" fill-opacity="0.5"/>
<circle cx="1071.5" cy="92.5" r="2.5" fill="#373737" fill-opacity="0.5"/>
<circle cx="1071.5" cy="147.5" r="2.5" fill="#373737" fill-opacity="0.5"/>
<circle cx="1071.5" cy="202.5" r="2.5" fill="#373737" fill-opacity="0.5"/>
<circle cx="1071.5" cy="257.5" r="2.5" fill="#373737" fill-opacity="0.5"/>
<circle cx="1071.5" cy="312.5" r="2.5" fill="#373737" fill-opacity="0.5"/>
<circle cx="1071.5" cy="367.5" r="2.5" fill="#373737" fill-opacity="0.5"/>
<circle cx="1071.5" cy="422.5" r="2.5" fill="#373737" fill-opacity="0.5"/>
<circle cx="1071.5" cy="477.5" r="2.5" fill="#373737" fill-opacity="0.5"/>
<circle cx="1071.5" cy="532.5" r="2.5" fill="#373737" fill-opacity="0.5"/>
<circle cx="1071.5" cy="587.5" r="2.5" fill="#373737" fill-opacity="0.5"/>
<circle cx="1071.5" cy="642.5" r="2.5" fill="#373737" fill-opacity="0.5"/>
<circle cx="1126.5" cy="37.5" r="2.5" fill="#373737" fill-opacity="0.5"/>
<circle cx="1126.5" cy="92.5" r="2.5" fill="#373737" fill-opacity="0.5"/>
<circle cx="1126.5" cy="147.5" r="2.5" fill="#373737" fill-opacity="0.5"/>
<circle cx="1126.5" cy="202.5" r="2.5" fill="#373737" fill-opacity="0.5"/>
<circle cx="1126.5" cy="257.5" r="2.5" fill="#373737" fill-opacity="0.5"/>
<circle cx="1126.5" cy="312.5" r="2.5" fill="#373737" fill-opacity="0.5"/>
<circle cx="1126.5" cy="367.5" r="2.5" fill="#373737" fill-opacity="0.5"/>
<circle cx="1126.5" cy="422.5" r="2.5" fill="#373737" fill-opacity="0.5"/>
<circle cx="1126.5" cy="477.5" r="2.5" fill="#373737" fill-opacity="0.5"/>
<circle cx="1126.5" cy="532.5" r="2.5" fill="#373737" fill-opacity="0.5"/>
<circle cx="1126.5" cy="587.5" r="2.5" fill="#373737" fill-opacity="0.5"/>
<circle cx="1126.5" cy="642.5" r="2.5" fill="#373737" fill-opacity="0.5"/>
<circle cx="1181.5" cy="37.5" r="2.5" fill="#373737" fill-opacity="0.5"/>
<circle cx="1181.5" cy="92.5" r="2.5" fill="#373737" fill-opacity="0.5"/>
<circle cx="1181.5" cy="147.5" r="2.5" fill="#373737" fill-opacity="0.5"/>
<circle cx="1181.5" cy="202.5" r="2.5" fill="#373737" fill-opacity="0.5"/>
<circle cx="1181.5" cy="257.5" r="2.5" fill="#373737" fill-opacity="0.5"/>
<circle cx="1181.5" cy="312.5" r="2.5" fill="#373737" fill-opacity="0.5"/>
<circle cx="1181.5" cy="367.5" r="2.5" fill="#373737" fill-opacity="0.5"/>
<circle cx="1181.5" cy="422.5" r="2.5" fill="#373737" fill-opacity="0.5"/>
<circle cx="1181.5" cy="477.5" r="2.5" fill="#373737" fill-opacity="0.5"/>
<circle cx="1181.5" cy="532.5" r="2.5" fill="#373737" fill-opacity="0.5"/>
<circle cx="1181.5" cy="587.5" r="2.5" fill="#373737" fill-opacity="0.5"/>
<circle cx="1181.5" cy="642.5" r="2.5" fill="#373737" fill-opacity="0.5"/>
<circle cx="1236.5" cy="37.5" r="2.5" fill="#373737" fill-opacity="0.5"/>
<circle cx="1236.5" cy="92.5" r="2.5" fill="#373737" fill-opacity="0.5"/>
<circle cx="1236.5" cy="147.5" r="2.5" fill="#373737" fill-opacity="0.5"/>
<circle cx="1236.5" cy="202.5" r="2.5" fill="#373737" fill-opacity="0.5"/>
<circle cx="1236.5" cy="257.5" r="2.5" fill="#373737" fill-opacity="0.5"/>
<circle cx="1236.5" cy="312.5" r="2.5" fill="#373737" fill-opacity="0.5"/>
<circle cx="1236.5" cy="367.5" r="2.5" fill="#373737" fill-opacity="0.5"/>
<circle cx="1236.5" cy="422.5" r="2.5" fill="#373737" fill-opacity="0.5"/>
<circle cx="1236.5" cy="477.5" r="2.5" fill="#373737" fill-opacity="0.5"/>
<circle cx="1236.5" cy="532.5" r="2.5" fill="#373737" fill-opacity="0.5"/>
<circle cx="1236.5" cy="587.5" r="2.5" fill="#373737" fill-opacity="0.5"/>
<circle cx="1236.5" cy="642.5" r="2.5" fill="#373737" fill-opacity="0.5"/>
<circle cx="1291.5" cy="37.5" r="2.5" fill="#373737" fill-opacity="0.5"/>
<circle cx="1291.5" cy="92.5" r="2.5" fill="#373737" fill-opacity="0.5"/>
<circle cx="1291.5" cy="147.5" r="2.5" fill="#373737" fill-opacity="0.5"/>
<circle cx="1291.5" cy="202.5" r="2.5" fill="#373737" fill-opacity="0.5"/>
<circle cx="1291.5" cy="257.5" r="2.5" fill="#373737" fill-opacity="0.5"/>
<circle cx="1291.5" cy="312.5" r="2.5" fill="#373737" fill-opacity="0.5"/>
<circle cx="1291.5" cy="367.5" r="2.5" fill="#373737" fill-opacity="0.5"/>
<circle cx="1291.5" cy="422.5" r="2.5" fill="#373737" fill-opacity="0.5"/>
<circle cx="1291.5" cy="477.5" r="2.5" fill="#373737" fill-opacity="0.5"/>
<circle cx="1291.5" cy="532.5" r="2.5" fill="#373737" fill-opacity="0.5"/>
<circle cx="1291.5" cy="587.5" r="2.5" fill="#373737" fill-opacity="0.5"/>
<circle cx="1291.5" cy="642.5" r="2.5" fill="#373737" fill-opacity="0.5"/>
<circle cx="1346.5" cy="37.5" r="2.5" fill="#373737" fill-opacity="0.5"/>
<circle cx="1346.5" cy="92.5" r="2.5" fill="#373737" fill-opacity="0.5"/>
<circle cx="1346.5" cy="147.5" r="2.5" fill="#373737" fill-opacity="0.5"/>
<circle cx="1346.5" cy="202.5" r="2.5" fill="#373737" fill-opacity="0.5"/>
<circle cx="1346.5" cy="257.5" r="2.5" fill="#373737" fill-opacity="0.5"/>
<circle cx="1346.5" cy="312.5" r="2.5" fill="#373737" fill-opacity="0.5"/>
<circle cx="1346.5" cy="367.5" r="2.5" fill="#373737" fill-opacity="0.5"/>
<circle cx="1346.5" cy="422.5" r="2.5" fill="#373737" fill-opacity="0.5"/>
<circle cx="1346.5" cy="477.5" r="2.5" fill="#373737" fill-opacity="0.5"/>
<circle cx="1346.5" cy="532.5" r="2.5" fill="#373737" fill-opacity="0.5"/>
<circle cx="1346.5" cy="587.5" r="2.5" fill="#373737" fill-opacity="0.5"/>
<circle cx="1346.5" cy="642.5" r="2.5" fill="#373737" fill-opacity="0.5"/>
<circle cx="1401.5" cy="37.5" r="2.5" fill="#373737" fill-opacity="0.5"/>
<circle cx="1401.5" cy="92.5" r="2.5" fill="#373737" fill-opacity="0.5"/>
<circle cx="1401.5" cy="147.5" r="2.5" fill="#373737" fill-opacity="0.5"/>
<circle cx="1401.5" cy="202.5" r="2.5" fill="#373737" fill-opacity="0.5"/>
<circle cx="1401.5" cy="257.5" r="2.5" fill="#373737" fill-opacity="0.5"/>
<circle cx="1401.5" cy="312.5" r="2.5" fill="#373737" fill-opacity="0.5"/>
<circle cx="1401.5" cy="367.5" r="2.5" fill="#373737" fill-opacity="0.5"/>
<circle cx="1401.5" cy="422.5" r="2.5" fill="#373737" fill-opacity="0.5"/>
<circle cx="1401.5" cy="477.5" r="2.5" fill="#373737" fill-opacity="0.5"/>
<circle cx="1401.5" cy="532.5" r="2.5" fill="#373737" fill-opacity="0.5"/>
<circle cx="1401.5" cy="587.5" r="2.5" fill="#373737" fill-opacity="0.5"/>
<circle cx="1401.5" cy="642.5" r="2.5" fill="#373737" fill-opacity="0.5"/>
<circle cx="1456.5" cy="37.5" r="2.5" fill="#373737" fill-opacity="0.5"/>
<circle cx="1456.5" cy="92.5" r="2.5" fill="#373737" fill-opacity="0.5"/>
<circle cx="1456.5" cy="147.5" r="2.5" fill="#373737" fill-opacity="0.5"/>
<circle cx="1456.5" cy="202.5" r="2.5" fill="#373737" fill-opacity="0.5"/>
<circle cx="1456.5" cy="257.5" r="2.5" fill="#373737" fill-opacity="0.5"/>
<circle cx="1456.5" cy="312.5" r="2.5" fill="#373737" fill-opacity="0.5"/>
<circle cx="1456.5" cy="367.5" r="2.5" fill="#373737" fill-opacity="0.5"/>
<circle cx="1456.5" cy="422.5" r="2.5" fill="#373737" fill-opacity="0.5"/>
<circle cx="1456.5" cy="477.5" r="2.5" fill="#373737" fill-opacity="0.5"/>
<circle cx="1456.5" cy="532.5" r="2.5" fill="#373737" fill-opacity="0.5"/>
<circle cx="1456.5" cy="587.5" r="2.5" fill="#373737" fill-opacity="0.5"/>
<circle cx="1456.5" cy="642.5" r="2.5" fill="#373737" fill-opacity="0.5"/>
<circle cx="1511.5" cy="37.5" r="2.5" fill="#373737" fill-opacity="0.5"/>
<circle cx="1511.5" cy="92.5" r="2.5" fill="#373737" fill-opacity="0.5"/>
<circle cx="1511.5" cy="147.5" r="2.5" fill="#373737" fill-opacity="0.5"/>
<circle cx="1511.5" cy="202.5" r="2.5" fill="#373737" fill-opacity="0.5"/>
<circle cx="1511.5" cy="257.5" r="2.5" fill="#373737" fill-opacity="0.5"/>
<circle cx="1511.5" cy="312.5" r="2.5" fill="#373737" fill-opacity="0.5"/>
<circle cx="1511.5" cy="367.5" r="2.5" fill="#373737" fill-opacity="0.5"/>
<circle cx="1511.5" cy="422.5" r="2.5" fill="#373737" fill-opacity="0.5"/>
<circle cx="1511.5" cy="477.5" r="2.5" fill="#373737" fill-opacity="0.5"/>
<circle cx="1511.5" cy="532.5" r="2.5" fill="#373737" fill-opacity="0.5"/>
<circle cx="1511.5" cy="587.5" r="2.5" fill="#373737" fill-opacity="0.5"/>
<circle cx="1511.5" cy="642.5" r="2.5" fill="#373737" fill-opacity="0.5"/>
<circle cx="1566.5" cy="37.5" r="2.5" fill="#373737" fill-opacity="0.5"/>
<circle cx="1566.5" cy="92.5" r="2.5" fill="#373737" fill-opacity="0.5"/>
<circle cx="1566.5" cy="147.5" r="2.5" fill="#373737" fill-opacity="0.5"/>
<circle cx="1566.5" cy="202.5" r="2.5" fill="#373737" fill-opacity="0.5"/>
<circle cx="1566.5" cy="257.5" r="2.5" fill="#373737" fill-opacity="0.5"/>
<circle cx="1566.5" cy="312.5" r="2.5" fill="#373737" fill-opacity="0.5"/>
<circle cx="1566.5" cy="367.5" r="2.5" fill="#373737" fill-opacity="0.5"/>
<circle cx="1566.5" cy="422.5" r="2.5" fill="#373737" fill-opacity="0.5"/>
<circle cx="1566.5" cy="477.5" r="2.5" fill="#373737" fill-opacity="0.5"/>
<circle cx="1566.5" cy="532.5" r="2.5" fill="#373737" fill-opacity="0.5"/>
<circle cx="1566.5" cy="587.5" r="2.5" fill="#373737" fill-opacity="0.5"/>
<circle cx="1566.5" cy="642.5" r="2.5" fill="#373737" fill-opacity="0.5"/>
<path d="M770.036 239.328L790.74 227.375L802.693 248.078L823.396 236.125L835.349 256.829L856.053 244.876" stroke="white" stroke-width="2.60064"/>
<path d="M1324.45 514.9L1330.64 491.808L1353.73 497.996L1359.92 474.904L1383.01 481.092L1389.2 458" stroke="white" stroke-width="2.60064"/>
<circle cx="811" cy="457" r="18" stroke="white" stroke-width="4"/>
<path d="M1192.62 87L1180.18 108.553" stroke="white" stroke-width="5"/>
<path d="M1175.2 92.2893L1196.75 104.733" stroke="white" stroke-width="5"/>
<path d="M255.906 127.407L231.867 120.966" stroke="white" stroke-width="5"/>
<path d="M246.287 111.947L239.846 135.986" stroke="white" stroke-width="5"/>
</svg>
