<svg width="1600" height="483" viewBox="0 0 1600 483" fill="none" xmlns="http://www.w3.org/2000/svg">
<rect width="1600" height="483" fill="#E5E5E5"/>
<g clip-path="url(#clip0)">
<rect width="1600" height="800" fill="#2437E6"/>
<g opacity="0.3">
<rect x="-563" y="67" width="1601" height="665" fill="#2437E6"/>
<circle cx="14.5" cy="104.5" r="2.5" fill="white" fill-opacity="0.5"/>
<circle cx="14.5" cy="159.5" r="2.5" fill="white" fill-opacity="0.5"/>
<circle cx="14.5" cy="214.5" r="2.5" fill="white" fill-opacity="0.5"/>
<circle cx="14.5" cy="269.5" r="2.5" fill="white" fill-opacity="0.5"/>
<circle cx="14.5" cy="324.5" r="2.5" fill="white" fill-opacity="0.5"/>
<circle cx="14.5" cy="379.5" r="2.5" fill="white" fill-opacity="0.5"/>
<circle cx="14.5" cy="434.5" r="2.5" fill="white" fill-opacity="0.5"/>
<circle cx="69.5" cy="104.5" r="2.5" fill="white" fill-opacity="0.5"/>
<circle cx="69.5" cy="159.5" r="2.5" fill="white" fill-opacity="0.5"/>
<circle cx="69.5" cy="214.5" r="2.5" fill="white" fill-opacity="0.5"/>
<circle cx="69.5" cy="269.5" r="2.5" fill="white" fill-opacity="0.5"/>
<circle cx="69.5" cy="324.5" r="2.5" fill="white" fill-opacity="0.5"/>
<circle cx="69.5" cy="379.5" r="2.5" fill="white" fill-opacity="0.5"/>
<circle cx="69.5" cy="434.5" r="2.5" fill="white" fill-opacity="0.5"/>
<circle cx="124.5" cy="104.5" r="2.5" fill="white" fill-opacity="0.5"/>
<circle cx="124.5" cy="159.5" r="2.5" fill="white" fill-opacity="0.5"/>
<circle cx="124.5" cy="214.5" r="2.5" fill="white" fill-opacity="0.5"/>
<circle cx="124.5" cy="269.5" r="2.5" fill="white" fill-opacity="0.5"/>
<circle cx="124.5" cy="324.5" r="2.5" fill="white" fill-opacity="0.5"/>
<circle cx="124.5" cy="379.5" r="2.5" fill="white" fill-opacity="0.5"/>
<circle cx="124.5" cy="434.5" r="2.5" fill="white" fill-opacity="0.5"/>
<circle cx="179.5" cy="104.5" r="2.5" fill="white" fill-opacity="0.5"/>
<circle cx="179.5" cy="159.5" r="2.5" fill="white" fill-opacity="0.5"/>
<circle cx="179.5" cy="214.5" r="2.5" fill="white" fill-opacity="0.5"/>
<circle cx="179.5" cy="269.5" r="2.5" fill="white" fill-opacity="0.5"/>
<circle cx="179.5" cy="324.5" r="2.5" fill="white" fill-opacity="0.5"/>
<circle cx="179.5" cy="379.5" r="2.5" fill="white" fill-opacity="0.5"/>
<circle cx="179.5" cy="434.5" r="2.5" fill="white" fill-opacity="0.5"/>
<circle cx="234.5" cy="104.5" r="2.5" fill="white" fill-opacity="0.5"/>
<circle cx="234.5" cy="159.5" r="2.5" fill="white" fill-opacity="0.5"/>
<circle cx="234.5" cy="214.5" r="2.5" fill="white" fill-opacity="0.5"/>
<circle cx="234.5" cy="269.5" r="2.5" fill="white" fill-opacity="0.5"/>
<circle cx="234.5" cy="324.5" r="2.5" fill="white" fill-opacity="0.5"/>
<circle cx="234.5" cy="379.5" r="2.5" fill="white" fill-opacity="0.5"/>
<circle cx="234.5" cy="434.5" r="2.5" fill="white" fill-opacity="0.5"/>
<circle cx="289.5" cy="104.5" r="2.5" fill="white" fill-opacity="0.5"/>
<circle cx="289.5" cy="159.5" r="2.5" fill="white" fill-opacity="0.5"/>
<circle cx="289.5" cy="214.5" r="2.5" fill="white" fill-opacity="0.5"/>
<circle cx="289.5" cy="269.5" r="2.5" fill="white" fill-opacity="0.5"/>
<circle cx="289.5" cy="324.5" r="2.5" fill="white" fill-opacity="0.5"/>
<circle cx="289.5" cy="379.5" r="2.5" fill="white" fill-opacity="0.5"/>
<circle cx="289.5" cy="434.5" r="2.5" fill="white" fill-opacity="0.5"/>
<circle cx="344.5" cy="104.5" r="2.5" fill="white" fill-opacity="0.5"/>
<circle cx="344.5" cy="159.5" r="2.5" fill="white" fill-opacity="0.5"/>
<circle cx="344.5" cy="214.5" r="2.5" fill="white" fill-opacity="0.5"/>
<circle cx="344.5" cy="269.5" r="2.5" fill="white" fill-opacity="0.5"/>
<circle cx="344.5" cy="324.5" r="2.5" fill="white" fill-opacity="0.5"/>
<circle cx="344.5" cy="379.5" r="2.5" fill="white" fill-opacity="0.5"/>
<circle cx="344.5" cy="434.5" r="2.5" fill="white" fill-opacity="0.5"/>
<circle cx="399.5" cy="104.5" r="2.5" fill="white" fill-opacity="0.5"/>
<circle cx="399.5" cy="159.5" r="2.5" fill="white" fill-opacity="0.5"/>
<circle cx="399.5" cy="214.5" r="2.5" fill="white" fill-opacity="0.5"/>
<circle cx="399.5" cy="269.5" r="2.5" fill="white" fill-opacity="0.5"/>
<circle cx="399.5" cy="324.5" r="2.5" fill="white" fill-opacity="0.5"/>
<circle cx="399.5" cy="379.5" r="2.5" fill="white" fill-opacity="0.5"/>
<circle cx="399.5" cy="434.5" r="2.5" fill="white" fill-opacity="0.5"/>
<circle cx="454.5" cy="104.5" r="2.5" fill="white" fill-opacity="0.5"/>
<circle cx="454.5" cy="159.5" r="2.5" fill="white" fill-opacity="0.5"/>
<circle cx="454.5" cy="214.5" r="2.5" fill="white" fill-opacity="0.5"/>
<circle cx="454.5" cy="269.5" r="2.5" fill="white" fill-opacity="0.5"/>
<circle cx="454.5" cy="324.5" r="2.5" fill="white" fill-opacity="0.5"/>
<circle cx="454.5" cy="379.5" r="2.5" fill="white" fill-opacity="0.5"/>
<circle cx="454.5" cy="434.5" r="2.5" fill="white" fill-opacity="0.5"/>
<circle cx="509.5" cy="104.5" r="2.5" fill="white" fill-opacity="0.5"/>
<circle cx="509.5" cy="159.5" r="2.5" fill="white" fill-opacity="0.5"/>
<circle cx="509.5" cy="214.5" r="2.5" fill="white" fill-opacity="0.5"/>
<circle cx="509.5" cy="269.5" r="2.5" fill="white" fill-opacity="0.5"/>
<circle cx="509.5" cy="324.5" r="2.5" fill="white" fill-opacity="0.5"/>
<circle cx="509.5" cy="379.5" r="2.5" fill="white" fill-opacity="0.5"/>
<circle cx="509.5" cy="434.5" r="2.5" fill="white" fill-opacity="0.5"/>
<circle cx="564.5" cy="104.5" r="2.5" fill="white" fill-opacity="0.5"/>
<circle cx="564.5" cy="159.5" r="2.5" fill="white" fill-opacity="0.5"/>
<circle cx="564.5" cy="214.5" r="2.5" fill="white" fill-opacity="0.5"/>
<circle cx="564.5" cy="269.5" r="2.5" fill="white" fill-opacity="0.5"/>
<circle cx="564.5" cy="324.5" r="2.5" fill="white" fill-opacity="0.5"/>
<circle cx="564.5" cy="379.5" r="2.5" fill="white" fill-opacity="0.5"/>
<circle cx="564.5" cy="434.5" r="2.5" fill="white" fill-opacity="0.5"/>
<circle cx="619.5" cy="104.5" r="2.5" fill="white" fill-opacity="0.5"/>
<circle cx="619.5" cy="159.5" r="2.5" fill="white" fill-opacity="0.5"/>
<circle cx="619.5" cy="214.5" r="2.5" fill="white" fill-opacity="0.5"/>
<circle cx="619.5" cy="269.5" r="2.5" fill="white" fill-opacity="0.5"/>
<circle cx="619.5" cy="324.5" r="2.5" fill="white" fill-opacity="0.5"/>
<circle cx="619.5" cy="379.5" r="2.5" fill="white" fill-opacity="0.5"/>
<circle cx="619.5" cy="434.5" r="2.5" fill="white" fill-opacity="0.5"/>
<circle cx="674.5" cy="104.5" r="2.5" fill="white" fill-opacity="0.5"/>
<circle cx="674.5" cy="159.5" r="2.5" fill="white" fill-opacity="0.5"/>
<circle cx="674.5" cy="214.5" r="2.5" fill="white" fill-opacity="0.5"/>
<circle cx="674.5" cy="269.5" r="2.5" fill="white" fill-opacity="0.5"/>
<circle cx="674.5" cy="324.5" r="2.5" fill="white" fill-opacity="0.5"/>
<circle cx="674.5" cy="379.5" r="2.5" fill="white" fill-opacity="0.5"/>
<circle cx="674.5" cy="434.5" r="2.5" fill="white" fill-opacity="0.5"/>
<circle cx="729.5" cy="104.5" r="2.5" fill="white" fill-opacity="0.5"/>
<circle cx="729.5" cy="159.5" r="2.5" fill="white" fill-opacity="0.5"/>
<circle cx="729.5" cy="214.5" r="2.5" fill="white" fill-opacity="0.5"/>
<circle cx="729.5" cy="269.5" r="2.5" fill="white" fill-opacity="0.5"/>
<circle cx="729.5" cy="324.5" r="2.5" fill="white" fill-opacity="0.5"/>
<circle cx="729.5" cy="379.5" r="2.5" fill="white" fill-opacity="0.5"/>
<circle cx="729.5" cy="434.5" r="2.5" fill="white" fill-opacity="0.5"/>
<circle cx="784.5" cy="104.5" r="2.5" fill="white" fill-opacity="0.5"/>
<circle cx="784.5" cy="159.5" r="2.5" fill="white" fill-opacity="0.5"/>
<circle cx="784.5" cy="214.5" r="2.5" fill="white" fill-opacity="0.5"/>
<circle cx="784.5" cy="269.5" r="2.5" fill="white" fill-opacity="0.5"/>
<circle cx="784.5" cy="324.5" r="2.5" fill="white" fill-opacity="0.5"/>
<circle cx="784.5" cy="379.5" r="2.5" fill="white" fill-opacity="0.5"/>
<circle cx="784.5" cy="434.5" r="2.5" fill="white" fill-opacity="0.5"/>
<circle cx="839.5" cy="104.5" r="2.5" fill="white" fill-opacity="0.5"/>
<circle cx="839.5" cy="159.5" r="2.5" fill="white" fill-opacity="0.5"/>
<circle cx="839.5" cy="214.5" r="2.5" fill="white" fill-opacity="0.5"/>
<circle cx="839.5" cy="269.5" r="2.5" fill="white" fill-opacity="0.5"/>
<circle cx="839.5" cy="324.5" r="2.5" fill="white" fill-opacity="0.5"/>
<circle cx="839.5" cy="379.5" r="2.5" fill="white" fill-opacity="0.5"/>
<circle cx="839.5" cy="434.5" r="2.5" fill="white" fill-opacity="0.5"/>
<circle cx="894.5" cy="104.5" r="2.5" fill="white" fill-opacity="0.5"/>
<circle cx="894.5" cy="159.5" r="2.5" fill="white" fill-opacity="0.5"/>
<circle cx="894.5" cy="214.5" r="2.5" fill="white" fill-opacity="0.5"/>
<circle cx="894.5" cy="269.5" r="2.5" fill="white" fill-opacity="0.5"/>
<circle cx="894.5" cy="324.5" r="2.5" fill="white" fill-opacity="0.5"/>
<circle cx="894.5" cy="379.5" r="2.5" fill="white" fill-opacity="0.5"/>
<circle cx="894.5" cy="434.5" r="2.5" fill="white" fill-opacity="0.5"/>
<circle cx="949.5" cy="104.5" r="2.5" fill="white" fill-opacity="0.5"/>
<circle cx="949.5" cy="159.5" r="2.5" fill="white" fill-opacity="0.5"/>
<circle cx="949.5" cy="214.5" r="2.5" fill="white" fill-opacity="0.5"/>
<circle cx="949.5" cy="269.5" r="2.5" fill="white" fill-opacity="0.5"/>
<circle cx="949.5" cy="324.5" r="2.5" fill="white" fill-opacity="0.5"/>
<circle cx="949.5" cy="379.5" r="2.5" fill="white" fill-opacity="0.5"/>
<circle cx="949.5" cy="434.5" r="2.5" fill="white" fill-opacity="0.5"/>
<circle cx="1004.5" cy="104.5" r="2.5" fill="white" fill-opacity="0.5"/>
<circle cx="1004.5" cy="159.5" r="2.5" fill="white" fill-opacity="0.5"/>
<circle cx="1004.5" cy="214.5" r="2.5" fill="white" fill-opacity="0.5"/>
<circle cx="1004.5" cy="269.5" r="2.5" fill="white" fill-opacity="0.5"/>
<circle cx="1004.5" cy="324.5" r="2.5" fill="white" fill-opacity="0.5"/>
<circle cx="1004.5" cy="379.5" r="2.5" fill="white" fill-opacity="0.5"/>
<circle cx="1004.5" cy="434.5" r="2.5" fill="white" fill-opacity="0.5"/>
<circle cx="1059.5" cy="104.5" r="2.5" fill="white" fill-opacity="0.5"/>
<circle cx="1059.5" cy="159.5" r="2.5" fill="white" fill-opacity="0.5"/>
<circle cx="1059.5" cy="214.5" r="2.5" fill="white" fill-opacity="0.5"/>
<circle cx="1059.5" cy="269.5" r="2.5" fill="white" fill-opacity="0.5"/>
<circle cx="1059.5" cy="324.5" r="2.5" fill="white" fill-opacity="0.5"/>
<circle cx="1059.5" cy="379.5" r="2.5" fill="white" fill-opacity="0.5"/>
<circle cx="1059.5" cy="434.5" r="2.5" fill="white" fill-opacity="0.5"/>
<circle cx="1114.5" cy="104.5" r="2.5" fill="white" fill-opacity="0.5"/>
<circle cx="1114.5" cy="159.5" r="2.5" fill="white" fill-opacity="0.5"/>
<circle cx="1114.5" cy="214.5" r="2.5" fill="white" fill-opacity="0.5"/>
<circle cx="1114.5" cy="269.5" r="2.5" fill="white" fill-opacity="0.5"/>
<circle cx="1114.5" cy="324.5" r="2.5" fill="white" fill-opacity="0.5"/>
<circle cx="1114.5" cy="379.5" r="2.5" fill="white" fill-opacity="0.5"/>
<circle cx="1114.5" cy="434.5" r="2.5" fill="white" fill-opacity="0.5"/>
<circle cx="1169.5" cy="104.5" r="2.5" fill="white" fill-opacity="0.5"/>
<circle cx="1169.5" cy="159.5" r="2.5" fill="white" fill-opacity="0.5"/>
<circle cx="1169.5" cy="214.5" r="2.5" fill="white" fill-opacity="0.5"/>
<circle cx="1169.5" cy="269.5" r="2.5" fill="white" fill-opacity="0.5"/>
<circle cx="1169.5" cy="324.5" r="2.5" fill="white" fill-opacity="0.5"/>
<circle cx="1169.5" cy="379.5" r="2.5" fill="white" fill-opacity="0.5"/>
<circle cx="1169.5" cy="434.5" r="2.5" fill="white" fill-opacity="0.5"/>
<circle cx="1224.5" cy="104.5" r="2.5" fill="white" fill-opacity="0.5"/>
<circle cx="1224.5" cy="159.5" r="2.5" fill="white" fill-opacity="0.5"/>
<circle cx="1224.5" cy="214.5" r="2.5" fill="white" fill-opacity="0.5"/>
<circle cx="1224.5" cy="269.5" r="2.5" fill="white" fill-opacity="0.5"/>
<circle cx="1224.5" cy="324.5" r="2.5" fill="white" fill-opacity="0.5"/>
<circle cx="1224.5" cy="379.5" r="2.5" fill="white" fill-opacity="0.5"/>
<circle cx="1224.5" cy="434.5" r="2.5" fill="white" fill-opacity="0.5"/>
<circle cx="1279.5" cy="104.5" r="2.5" fill="white" fill-opacity="0.5"/>
<circle cx="1279.5" cy="159.5" r="2.5" fill="white" fill-opacity="0.5"/>
<circle cx="1279.5" cy="214.5" r="2.5" fill="white" fill-opacity="0.5"/>
<circle cx="1279.5" cy="269.5" r="2.5" fill="white" fill-opacity="0.5"/>
<circle cx="1279.5" cy="324.5" r="2.5" fill="white" fill-opacity="0.5"/>
<circle cx="1279.5" cy="379.5" r="2.5" fill="white" fill-opacity="0.5"/>
<circle cx="1279.5" cy="434.5" r="2.5" fill="white" fill-opacity="0.5"/>
<circle cx="1334.5" cy="104.5" r="2.5" fill="white" fill-opacity="0.5"/>
<circle cx="1334.5" cy="159.5" r="2.5" fill="white" fill-opacity="0.5"/>
<circle cx="1334.5" cy="214.5" r="2.5" fill="white" fill-opacity="0.5"/>
<circle cx="1334.5" cy="269.5" r="2.5" fill="white" fill-opacity="0.5"/>
<circle cx="1334.5" cy="324.5" r="2.5" fill="white" fill-opacity="0.5"/>
<circle cx="1334.5" cy="379.5" r="2.5" fill="white" fill-opacity="0.5"/>
<circle cx="1334.5" cy="434.5" r="2.5" fill="white" fill-opacity="0.5"/>
<circle cx="1389.5" cy="104.5" r="2.5" fill="white" fill-opacity="0.5"/>
<circle cx="1389.5" cy="159.5" r="2.5" fill="white" fill-opacity="0.5"/>
<circle cx="1389.5" cy="214.5" r="2.5" fill="white" fill-opacity="0.5"/>
<circle cx="1389.5" cy="269.5" r="2.5" fill="white" fill-opacity="0.5"/>
<circle cx="1389.5" cy="324.5" r="2.5" fill="white" fill-opacity="0.5"/>
<circle cx="1389.5" cy="379.5" r="2.5" fill="white" fill-opacity="0.5"/>
<circle cx="1389.5" cy="434.5" r="2.5" fill="white" fill-opacity="0.5"/>
<circle cx="1444.5" cy="104.5" r="2.5" fill="white" fill-opacity="0.5"/>
<circle cx="1444.5" cy="159.5" r="2.5" fill="white" fill-opacity="0.5"/>
<circle cx="1444.5" cy="214.5" r="2.5" fill="white" fill-opacity="0.5"/>
<circle cx="1444.5" cy="269.5" r="2.5" fill="white" fill-opacity="0.5"/>
<circle cx="1444.5" cy="324.5" r="2.5" fill="white" fill-opacity="0.5"/>
<circle cx="1444.5" cy="379.5" r="2.5" fill="white" fill-opacity="0.5"/>
<circle cx="1444.5" cy="434.5" r="2.5" fill="white" fill-opacity="0.5"/>
<circle cx="1499.5" cy="104.5" r="2.5" fill="white" fill-opacity="0.5"/>
<circle cx="1499.5" cy="159.5" r="2.5" fill="white" fill-opacity="0.5"/>
<circle cx="1499.5" cy="214.5" r="2.5" fill="white" fill-opacity="0.5"/>
<circle cx="1499.5" cy="269.5" r="2.5" fill="white" fill-opacity="0.5"/>
<circle cx="1499.5" cy="324.5" r="2.5" fill="white" fill-opacity="0.5"/>
<circle cx="1499.5" cy="379.5" r="2.5" fill="white" fill-opacity="0.5"/>
<circle cx="1499.5" cy="434.5" r="2.5" fill="white" fill-opacity="0.5"/>
<circle cx="1554.5" cy="104.5" r="2.5" fill="white" fill-opacity="0.5"/>
<circle cx="1554.5" cy="159.5" r="2.5" fill="white" fill-opacity="0.5"/>
<circle cx="1554.5" cy="214.5" r="2.5" fill="white" fill-opacity="0.5"/>
<circle cx="1554.5" cy="269.5" r="2.5" fill="white" fill-opacity="0.5"/>
<circle cx="1554.5" cy="324.5" r="2.5" fill="white" fill-opacity="0.5"/>
<circle cx="1554.5" cy="379.5" r="2.5" fill="white" fill-opacity="0.5"/>
<circle cx="1554.5" cy="434.5" r="2.5" fill="white" fill-opacity="0.5"/>
</g>
<path d="M452.039 380.46L428 374.019" stroke="white" stroke-width="5"/>
<path d="M442.421 365L435.979 389.039" stroke="white" stroke-width="5"/>
<path d="M1110.95 185.932L1089.4 198.375" stroke="white" stroke-width="5"/>
<path d="M1093.22 181.801L1105.66 203.354" stroke="white" stroke-width="5"/>
<path d="M1098 416.328L1118.7 404.375L1130.66 425.078L1151.36 413.125L1163.31 433.829L1184.02 421.876" stroke="white" stroke-width="2.60064"/>
<path d="M350.452 203.9L356.639 180.808L379.731 186.996L385.918 163.904L409.01 170.092L415.197 147" stroke="white" stroke-width="2.60064"/>
</g>
<defs>
<clipPath id="clip0">
<rect width="1600" height="800" fill="white"/>
</clipPath>
</defs>
</svg>
