<svg width="36" height="36" viewBox="0 0 36 36" fill="none" xmlns="http://www.w3.org/2000/svg">
<circle cx="18" cy="18" r="18" fill="white"/>
<path d="M32.7939 16.7939C32.1278 16.7939 31.5879 17.3338 31.5879 18C31.5879 25.4927 25.4927 31.5879 18 31.5879C10.5077 31.5879 4.41206 25.4927 4.41206 18C4.41206 10.5077 10.5077 4.41206 18 4.41206C18.6661 4.41206 19.2061 3.87219 19.2061 3.20606C19.2061 2.53988 18.6661 2 18 2C9.1775 2 2 9.1775 2 18C2 26.8221 9.1775 34 18 34C26.8221 34 34 26.8221 34 18C34 17.3339 33.4601 16.7939 32.7939 16.7939Z" fill="#FF3232"/>
<path d="M18.7737 18.0002L24.8403 24.0668C25.0539 24.2804 25.0539 24.6267 24.8403 24.8402C24.6267 25.0538 24.2804 25.0538 24.0668 24.8402L18.0002 18.7736L11.9336 24.8402C11.72 25.0538 11.3738 25.0538 11.1602 24.8402C10.9466 24.6266 10.9466 24.2804 11.1602 24.0668L17.2268 18.0002L11.1602 11.9336C10.9466 11.72 10.9466 11.3737 11.1602 11.1602C11.267 11.0534 11.4069 11 11.5469 11C11.6869 11 11.8269 11.0534 11.9337 11.1602L18.0002 17.2267L24.0668 11.1602C24.1736 11.0534 24.3136 11 24.4535 11C24.5935 11 24.7335 11.0534 24.8403 11.1602C25.0539 11.3737 25.0539 11.72 24.8403 11.9336L18.7737 18.0002Z" fill="#FF3232"/>
</svg>
