<svg width="80" height="100" viewBox="0 0 80 100" fill="none" xmlns="http://www.w3.org/2000/svg">
<path fill-rule="evenodd" clip-rule="evenodd" d="M23.6129 22.6387H27.452H57.0824V25.7557H27.452V68.3462V71.4633H23.6129H6.5813V6.23418H8.2266H73.4188V71.4633H51.4127V68.3462H70.1281V9.35123H9.87198V68.3462H23.6129V25.7557V22.6387Z" fill="#FEFEFE"/>
<path fill-rule="evenodd" clip-rule="evenodd" d="M31.291 28.8728H35.1301H57.0824V31.9899H35.1301V41.034H57.0824V44.1511H35.1301V47.2681H57.0824V50.3852H35.1301V74.5804V77.6975H31.291H0V0H1.64539H80V77.6975H51.4127V74.5804H76.7094V3.11713H3.2907V74.5804H31.291V50.3852V47.2681V44.1511V41.034V31.9899V28.8728Z" fill="#FEFEFE"/>
<path d="M46.0689 98.0513H0V98.7786H46.0689V98.0513Z" fill="#FEFEFE"/>
<path d="M8.64326 84.6851H1.94316V88.0691H7.23619V88.9589H1.94316V93.2325H0V83.7954H8.64326V84.6851Z" fill="#FEFEFE"/>
<path d="M12.8477 93.2325H10.9045V83.7954H12.8477V93.2325Z" fill="#FEFEFE"/>
<path d="M24.9247 84.975C25.9744 85.8514 26.4992 87.031 26.4992 88.5139C26.4992 89.997 25.9744 91.1766 24.9247 92.0529C23.8749 92.9292 22.4512 93.3674 20.6533 93.3674C19.6371 93.3674 18.6767 93.3224 17.7722 93.2325H15.8626V83.7954H17.7722C18.6767 83.7055 19.6371 83.6605 20.6533 83.6605C22.4512 83.6605 23.8749 84.0987 24.9247 84.975ZM23.2915 91.2979C23.9559 90.5115 24.2882 89.5835 24.2882 88.5139C24.2882 87.4444 23.9559 86.5164 23.2915 85.73C22.6271 84.9436 21.7476 84.5504 20.6533 84.5504C19.6483 84.5504 18.699 84.5953 17.8058 84.6851V92.3427C18.699 92.4326 19.6483 92.4776 20.6533 92.4776C21.7476 92.4776 22.6271 92.0844 23.2915 91.2979Z" fill="#FEFEFE"/>
<path d="M37.9564 93.2325H28.9112V83.7954H37.5544V84.6851H30.8543V88.0691H36.1473V88.9589H30.8543V92.3427H37.9564V93.2325Z" fill="#FEFEFE"/>
<path d="M47.6046 93.2325H40.3685V83.7954H42.3115V92.3427H47.6046V93.2325Z" fill="#FEFEFE"/>
<path d="M51.3567 93.2325H49.4136V83.7954H51.3567V93.2325Z" fill="#FEFEFE"/>
<path d="M63.7184 90.5901C63.7184 91.444 63.2467 92.1338 62.303 92.6595C61.3595 93.1854 60.2511 93.4483 58.9781 93.4483C57.6939 93.4483 56.58 93.1854 55.6364 92.6595C54.6928 92.1338 54.221 91.444 54.221 90.5901V83.7954H56.1641V90.3744C56.1641 91.0036 56.4823 91.5249 57.1188 91.9383C57.7553 92.3518 58.5148 92.5584 59.3969 92.5584C60.2679 92.5584 61.0217 92.3518 61.6582 91.9383C62.2947 91.5249 62.613 91.0036 62.613 90.3744V83.7954H63.7184V90.5901Z" fill="#FEFEFE"/>
<path d="M79.9997 93.2325H78.0567L77.5376 86.0603L72.8808 93.2325H72.1605L67.5877 86.2086L67.0853 93.2325H65.9797L66.6497 83.7954H68.2075L72.9982 91.1429L77.7719 83.7954H79.3298L79.9997 93.2325Z" fill="#FEFEFE"/>
<path d="M51.3208 100H48.5627V96.3664H49.3034V99.6574H51.3208V100Z" fill="#CB0100"/>
<path d="M55.6301 100H54.8385L54.264 98.7283H52.5402L51.9464 100H51.4932L53.1913 96.3664H53.983L55.6301 100ZM54.1107 98.3857L53.4149 96.8543L52.6998 98.3857H54.1107Z" fill="#CB0100"/>
<path d="M61.6442 96.3664L60.2396 100H59.7416L58.7265 97.3682L57.705 100H57.2135L55.8025 96.3664H56.5813L57.622 99.0656L58.669 96.3664H59.1096L60.1566 99.0656L61.2036 96.3664H61.6442Z" fill="#CB0100"/>
<path d="M67.6964 96.709H65.1426V98.0119H67.16V98.3545H65.1426V100H64.4021V96.3664H67.6964V96.709Z" fill="#CB0100"/>
<path d="M69.2988 100H68.5583V96.3664H69.2988V100Z" fill="#CB0100"/>
<path d="M74.253 100H73.3593L72.0632 98.4635C71.7397 98.4635 71.4291 98.4358 71.131 98.3804V100H70.3905V96.3664H71.1183C71.4163 96.3318 71.7311 96.3145 72.0632 96.3145C72.3441 96.3145 72.5984 96.3335 72.8261 96.3716C73.0538 96.4096 73.2581 96.4702 73.439 96.5533C73.6198 96.6363 73.7603 96.7488 73.8603 96.8907C73.9603 97.0326 74.0104 97.1987 74.0104 97.389C74.0104 97.915 73.6401 98.249 72.8995 98.3908L74.253 100ZM72.8389 97.9133C73.058 97.7748 73.1677 97.6001 73.1677 97.389C73.1677 97.1779 73.058 97.0031 72.8389 96.8647C72.6197 96.7263 72.3612 96.6571 72.0632 96.6571C71.7354 96.6571 71.4248 96.6744 71.131 96.709V98.0378C71.4291 98.0932 71.7397 98.1209 72.0632 98.1209C72.3612 98.1209 72.6197 98.0517 72.8389 97.9133Z" fill="#CB0100"/>
<path d="M79.9988 100H79.2581L79.0603 97.2385L77.2854 100H77.0109L75.268 97.2955L75.0765 100H74.6551L74.9104 96.3664H75.5042L77.3302 99.1954L79.1496 96.3664H79.7434L79.9988 100Z" fill="#CB0100"/>
</svg>
