<svg width="218" height="50" viewBox="0 0 218 50" fill="none" xmlns="http://www.w3.org/2000/svg">
<path fill-rule="evenodd" clip-rule="evenodd" d="M201.246 0C205.97 0 210.049 3.3058 211.028 7.92721L217.385 37.9272C218.703 44.1462 213.959 50 207.602 50H14.0246C9.01437 50 4.77748 46.2923 4.11293 41.3264L0.0983429 11.3264C-0.704086 5.33002 3.96017 0 10.01 0H201.246ZM206.661 45C204.827 45 203.341 43.6569 203.341 42C203.341 40.3431 204.827 39 206.661 39C208.495 39 209.982 40.3431 209.982 42C209.982 43.6569 208.495 45 206.661 45Z" fill="#2C2C2C"/>
</svg>
