<svg width="197" height="50" viewBox="0 0 197 50" fill="none" xmlns="http://www.w3.org/2000/svg">
<path fill-rule="evenodd" clip-rule="evenodd" d="M15.839 0C11.0411 0 6.91942 3.4075 6.01732 8.11978L0.274275 38.1198C-0.905901 44.2847 3.81907 50 10.0959 50H183.091C188.15 50 192.411 46.2224 193.019 41.2003L196.646 11.2003C197.366 5.24487 192.717 0 186.718 0H15.839ZM9.99998 45C11.6568 45 13 43.6569 13 42C13 40.3431 11.6568 39 9.99998 39C8.34312 39 6.99998 40.3431 6.99998 42C6.99998 43.6569 8.34312 45 9.99998 45Z" fill="#2C2C2C"/>
</svg>
