<svg width="80" height="100" viewBox="0 0 80 100" fill="none" xmlns="http://www.w3.org/2000/svg">
<path fill-rule="evenodd" clip-rule="evenodd" d="M23.6129 22.6389H27.452H57.0824V25.7559H27.452V68.3464V71.4635H23.6129H6.5813V6.23438H8.2266H73.4188V71.4635H51.4127V68.3464H70.1281V9.35143H9.87199V68.3464H23.6129V25.7559V22.6389Z" fill="#FEFEFE"/>
<path fill-rule="evenodd" clip-rule="evenodd" d="M31.291 28.8728H35.1301H57.0824V31.9899H35.1301V41.034H57.0824V44.1511H35.1301V47.2681H57.0824V50.3852H35.1301V74.5804V77.6975H31.291H0V0H1.64539H80V77.6975H51.4127V74.5804H76.7094V3.11713H3.2907V74.5804H31.291V50.3852V47.2681V44.1511V41.034V31.9899V28.8728Z" fill="#FEFEFE"/>
<path d="M46.0689 98.0513H0V98.7786H46.0689V98.0513Z" fill="#FEFEFE"/>
<path d="M8.64326 84.6851H1.94316V88.0691H7.23619V88.9589H1.94316V93.2326H0V83.7954H8.64326V84.6851Z" fill="#FEFEFE"/>
<path d="M12.8477 93.2326H10.9045V83.7954H12.8477V93.2326Z" fill="#FEFEFE"/>
<path d="M24.9247 84.9751C25.9744 85.8515 26.4992 87.0311 26.4992 88.514C26.4992 89.9971 25.9744 91.1767 24.9247 92.053C23.8749 92.9293 22.4512 93.3675 20.6533 93.3675C19.6371 93.3675 18.6767 93.3226 17.7722 93.2326H15.8627V83.7955H17.7722C18.6767 83.7056 19.6371 83.6606 20.6533 83.6606C22.4512 83.6606 23.8749 84.0988 24.9247 84.9751ZM23.2916 91.298C23.9559 90.5116 24.2882 89.5837 24.2882 88.514C24.2882 87.4445 23.9559 86.5165 23.2916 85.7301C22.6271 84.9437 21.7477 84.5505 20.6533 84.5505C19.6483 84.5505 18.699 84.5954 17.8058 84.6852V92.3428C18.699 92.4327 19.6483 92.4777 20.6533 92.4777C21.7477 92.4777 22.6271 92.0845 23.2916 91.298Z" fill="#FEFEFE"/>
<path d="M37.9564 93.2326H28.9113V83.7954H37.5544V84.6851H30.8543V88.0691H36.1474V88.9589H30.8543V92.3427H37.9564V93.2326Z" fill="#FEFEFE"/>
<path d="M47.6045 93.2326H40.3684V83.7954H42.3115V92.3427H47.6045V93.2326Z" fill="#FEFEFE"/>
<path d="M51.3567 93.2326H49.4136V83.7954H51.3567V93.2326Z" fill="#FEFEFE"/>
<path d="M63.7184 90.5902C63.7184 91.444 63.2466 92.1338 62.303 92.6596C61.3594 93.1854 60.2511 93.4483 58.9781 93.4483C57.6938 93.4483 56.58 93.1854 55.6364 92.6596C54.6928 92.1338 54.2209 91.444 54.2209 90.5902V83.7954H56.1641V90.3744C56.1641 91.0036 56.4823 91.5249 57.1188 91.9384C57.7553 92.3518 58.5147 92.5585 59.3968 92.5585C60.2679 92.5585 61.0217 92.3518 61.6582 91.9384C62.2947 91.5249 62.6129 91.0036 62.6129 90.3744V83.7954H63.7184V90.5902Z" fill="#FEFEFE"/>
<path d="M79.9997 93.2326H78.0567L77.5376 86.0603L72.8809 93.2326H72.1606L67.5877 86.2086L67.0853 93.2326H65.9797L66.6497 83.7954H68.2075L72.9982 91.1429L77.7719 83.7954H79.3298L79.9997 93.2326Z" fill="#FEFEFE"/>
<path d="M51.3208 99.9998H48.5627V96.3662H49.3034V99.6572H51.3208V99.9998Z" fill="#CB0100"/>
<path d="M55.6302 99.9998H54.8385L54.264 98.728H52.5402L51.9464 99.9998H51.4932L53.1913 96.3662H53.983L55.6302 99.9998ZM54.1107 98.3854L53.4149 96.8541L52.6998 98.3854H54.1107Z" fill="#CB0100"/>
<path d="M61.6441 96.3662L60.2395 99.9998H59.7416L58.7264 97.368L57.7049 99.9998H57.2134L55.8025 96.3662H56.5813L57.6219 99.0654L58.669 96.3662H59.1095L60.1565 99.0654L61.2036 96.3662H61.6441Z" fill="#CB0100"/>
<path d="M67.6964 96.7088H65.1426V98.0116H67.16V98.3543H65.1426V99.9998H64.4021V96.3662H67.6964V96.7088Z" fill="#CB0100"/>
<path d="M69.2988 99.9998H68.5582V96.3662H69.2988V99.9998Z" fill="#CB0100"/>
<path d="M74.253 99.9999H73.3593L72.0632 98.4635C71.7397 98.4635 71.4291 98.4358 71.131 98.3804V99.9999H70.3905V96.3664H71.1183C71.4163 96.3317 71.7311 96.3145 72.0632 96.3145C72.3441 96.3145 72.5984 96.3335 72.8261 96.3715C73.0538 96.4096 73.2581 96.4701 73.439 96.5532C73.6198 96.6362 73.7603 96.7487 73.8603 96.8906C73.9603 97.0325 74.0104 97.1986 74.0104 97.389C74.0104 97.9149 73.6401 98.2489 72.8995 98.3907L74.253 99.9999ZM72.8389 97.9132C73.058 97.7748 73.1677 97.6 73.1677 97.389C73.1677 97.1778 73.058 97.0031 72.8389 96.8647C72.6197 96.7262 72.3612 96.6571 72.0632 96.6571C71.7354 96.6571 71.4248 96.6743 71.131 96.709V98.0378C71.4291 98.0932 71.7397 98.1209 72.0632 98.1209C72.3612 98.1209 72.6197 98.0516 72.8389 97.9132Z" fill="#CB0100"/>
<path d="M79.9988 99.9998H79.2582L79.0603 97.2383L77.2854 99.9998H77.011L75.268 97.2953L75.0766 99.9998H74.6552L74.9105 96.3662H75.5042L77.3303 99.1952L79.1496 96.3662H79.7434L79.9988 99.9998Z" fill="#CB0100"/>
</svg>
