<svg width="24" height="24" viewBox="0 0 24 24" fill="none" xmlns="http://www.w3.org/2000/svg">
<path d="M20.9471 8.30502C20.9361 7.54802 20.7961 6.79702 20.5281 6.08902C20.0591 4.88002 19.1041 3.92402 17.8951 3.45602C17.1961 3.19302 16.4571 3.05202 15.7091 3.03602C14.7471 2.99302 14.4421 2.98102 12.0001 2.98102C9.55807 2.98102 9.24507 2.98102 8.29007 3.03602C7.54307 3.05202 6.80407 3.19302 6.10507 3.45602C4.89607 3.92402 3.94007 4.88002 3.47207 6.08902C3.20907 6.78802 3.06707 7.52702 3.05307 8.27402C3.01007 9.23702 2.99707 9.54202 2.99707 11.984C2.99707 14.426 2.99707 14.738 3.05307 15.694C3.06807 16.442 3.20907 17.18 3.47207 17.881C3.94107 19.089 4.89607 20.045 6.10607 20.513C6.80207 20.785 7.54107 20.939 8.29107 20.963C9.25407 21.006 9.55907 21.019 12.0011 21.019C14.4431 21.019 14.7561 21.019 15.7111 20.963C16.4581 20.948 17.1971 20.807 17.8971 20.544C19.1061 20.075 20.0611 19.119 20.5301 17.911C20.7931 17.211 20.9341 16.473 20.9491 15.724C20.9921 14.762 21.0051 14.457 21.0051 12.014C21.0031 9.57202 21.0031 9.26202 20.9471 8.30502ZM11.9941 16.602C9.44007 16.602 7.37107 14.533 7.37107 11.979C7.37107 9.42502 9.44007 7.35602 11.9941 7.35602C14.5461 7.35602 16.6171 9.42502 16.6171 11.979C16.6171 14.533 14.5461 16.602 11.9941 16.602ZM16.8011 8.26302C16.2041 8.26302 15.7231 7.78102 15.7231 7.18502C15.7231 6.58902 16.2041 6.10702 16.8011 6.10702C17.3961 6.10702 17.8781 6.58902 17.8781 7.18502C17.8781 7.78102 17.3961 8.26302 16.8011 8.26302Z" fill="#282828"/>
<path d="M11.994 14.982C13.6525 14.982 14.997 13.6375 14.997 11.979C14.997 10.3205 13.6525 8.97601 11.994 8.97601C10.3355 8.97601 8.99097 10.3205 8.99097 11.979C8.99097 13.6375 10.3355 14.982 11.994 14.982Z" fill="#282828"/>
</svg>
