<svg aria-hidden="true" style="position: absolute; width: 0; height: 0; overflow: hidden;" version="1.1" xmlns="http://www.w3.org/2000/svg" xmlns:xlink="http://www.w3.org/1999/xlink">
<defs>
<symbol id="bonus" viewBox="0 0 31 32">
    <path d="M6.4 16h-1.28v10.24c0 1.413 1.147 2.56 2.56 2.56h6.4v-12.8h-7.68zM23.040 16h-6.4v12.8h6.4c1.413 0 2.56-1.147 2.56-2.56v-10.24h-2.56zM24.052 9.6c0.168-0.526 0.268-1.157 0.268-1.92 0-2.47-2.010-4.48-4.48-4.48-2.076 0-3.462 1.897-4.357 3.949-0.882-1.939-2.339-3.949-4.603-3.949-2.47 0-4.48 2.010-4.48 4.48 0 0.763 0.101 1.394 0.268 1.92h-4.108v5.12h11.52v-2.56h2.56v2.56h11.52v-5.12h-4.108zM8.96 7.68c0-1.059 0.861-1.92 1.92-1.92 1.137 0 2.194 1.952 2.813 3.84h-3.453c-0.479 0-1.28 0-1.28-1.92zM19.84 5.76c1.059 0 1.92 0.861 1.92 1.92 0 1.92-0.801 1.92-1.28 1.92h-3.171c0.653-2.017 1.601-3.84 2.531-3.84z"></path>
</symbol>
<symbol id="time" viewBox="0 0 32 32">
    <path d="M16 5.333c-6.504 0-12 5.496-12 12s5.496 12 12 12c6.505 0 12-5.496 12-12s-5.495-12-12-12zM22.667 18.667h-8v-8h2.667v5.333h5.333v2.667z"></path>
    <path d="M27.057 8.943l-4.013-4 1.883-1.889 4.013 4-1.883 1.889z"></path>
    <path d="M7.043 3.059l1.888 1.883-3.987 3.998-1.888-1.883 3.987-3.998z"></path>
</symbol>
<symbol id="training" viewBox="0 0 32 32">
    <path d="M16 0c-6.302 0-11.429 5.127-11.429 11.429s5.127 11.429 11.429 11.429c6.302 0 11.429-5.127 11.429-11.429s-5.127-11.429-11.429-11.429zM16 19.429c-4.41 0-8-3.589-8-8s3.59-8 8-8c4.41 0 8 3.589 8 8s-3.59 8-8 8z"></path>
    <path d="M16 5.714c-3.151 0-5.714 2.563-5.714 5.714s2.563 5.714 5.714 5.714c3.151 0 5.714-2.563 5.714-5.714s-2.563-5.714-5.714-5.714zM16 13.714c-1.261 0-2.286-1.025-2.286-2.286s1.025-2.286 2.286-2.286c1.261 0 2.286 1.025 2.286 2.286s-1.025 2.286-2.286 2.286z"></path>
</symbol>
</defs>
</svg>
