<svg width="28" height="28" viewBox="0 0 28 28" fill="none" xmlns="http://www.w3.org/2000/svg">
<g filter="url(#filter0_d)">
<path d="M14 0C8.486 0 4 4.486 4 10C4 15.514 8.486 20 14 20C19.514 20 24 15.514 24 10C24 4.486 19.514 0 14 0ZM14 17C10.141 17 7 13.86 7 10C7 6.14 10.141 3 14 3C17.859 3 21 6.14 21 10C21 13.86 17.859 17 14 17Z" fill="black"/>
<path d="M14 5C11.243 5 9 7.243 9 10C9 12.757 11.243 15 14 15C16.757 15 19 12.757 19 10C19 7.243 16.757 5 14 5ZM14 12C12.897 12 12 11.103 12 10C12 8.897 12.897 8 14 8C15.103 8 16 8.897 16 10C16 11.103 15.103 12 14 12Z" fill="black"/>
</g>
<defs>
<filter id="filter0_d" x="0" y="0" width="28" height="28" filterUnits="userSpaceOnUse" color-interpolation-filters="sRGB">
<feFlood flood-opacity="0" result="BackgroundImageFix"/>
<feColorMatrix in="SourceAlpha" type="matrix" values="0 0 0 0 0 0 0 0 0 0 0 0 0 0 0 0 0 0 127 0"/>
<feOffset dy="4"/>
<feGaussianBlur stdDeviation="2"/>
<feColorMatrix type="matrix" values="0 0 0 0 0 0 0 0 0 0 0 0 0 0 0 0 0 0 0.25 0"/>
<feBlend mode="normal" in2="BackgroundImageFix" result="effect1_dropShadow"/>
<feBlend mode="normal" in="SourceGraphic" in2="effect1_dropShadow" result="shape"/>
</filter>
</defs>
</svg>
