<svg width="14" height="14" viewBox="0 0 14 14" fill="none" xmlns="http://www.w3.org/2000/svg">
<path d="M7.77369 7.00024L13.8403 13.0669C14.0539 13.2804 14.0539 13.6267 13.8403 13.8403C13.6267 14.0539 13.2804 14.0539 13.0668 13.8403L7.00022 7.77369L0.933633 13.8403C0.720044 14.0539 0.373752 14.0539 0.160191 13.8403C-0.0533698 13.6267 -0.0533971 13.2804 0.160191 13.0669L6.22678 7.00027L0.160191 0.933661C-0.0533971 0.720072 -0.0533971 0.37378 0.160191 0.160219C0.266972 0.0534382 0.406949 6.19888e-05 0.546926 6.19888e-05C0.686902 6.19888e-05 0.826852 0.0534382 0.93366 0.160219L7.00022 6.2268L13.0668 0.160219C13.1736 0.0534382 13.3136 6.19888e-05 13.4535 6.19888e-05C13.5935 6.19888e-05 13.7335 0.0534382 13.8403 0.160219C14.0539 0.373807 14.0539 0.720099 13.8403 0.933661L7.77369 7.00024Z" fill="white"/>
</svg>
